<svg width="440" height="434" viewBox="0 0 440 434" fill="none" xmlns="http://www.w3.org/2000/svg">
<path d="M154.33 194.021L170.415 184.735L274.616 365.217L258.531 374.503L154.33 194.021Z" fill="#0E153A"/>
<rect x="115.42" y="130.343" width="22.2882" height="119.605" transform="rotate(-30 115.42 130.343)" fill="#0E153A"/>
<path d="M110.038 99.9696L134.783 121.779L117.542 131.733L110.038 99.9696Z" fill="#0E153A"/>
<path d="M155.64 201.379L128.888 216.824L112.218 236.614L106.016 265.971L104.84 282.68L52.3078 189.246L125.56 149.278L155.64 201.379Z" fill="#86D3FF"/>
<path d="M28.6356 150.455L69.6244 165.277L97.1493 162.561L124.335 146.865L154.062 198.354L81.8062 240.071L28.6356 150.455Z" fill="#86D3FF"/>
<path d="M145.568 137.983L172.319 122.539L189.13 102.095L195.371 72.4155L196.546 55.6041L249.628 147.545L175.723 190.214L145.568 137.983Z" fill="#86D3FF"/>
<path d="M274.813 188.632L233.43 174.409L205.462 177.508L175.723 190.214L148.216 142.569L222.121 99.9003L274.813 188.632Z" fill="#86D3FF"/>
<path d="M262.814 106.714C283.686 142.866 287.882 178.645 272.653 187.438C272.653 187.438 256.111 158.786 235.239 122.634C214.367 86.4831 197.447 57.1766 197.447 57.1766C212.676 48.3842 241.942 70.5629 262.814 106.714Z" fill="#86D3FF"/>
<path d="M68.2438 215.474C88.7612 251.011 104.291 280.456 104.291 280.456C89.0619 289.249 60.0837 267.568 39.5663 232.031C19.0489 196.494 14.7618 160.557 29.9908 151.765C29.9908 151.765 47.7264 179.937 68.2438 215.474Z" fill="#86D3FF"/>
</svg>
