<svg width="177" height="169" viewBox="0 0 177 169" fill="none" xmlns="http://www.w3.org/2000/svg">
<g filter="url(#filter0_d)">
<rect x="4" width="169" height="161" fill="#0E153A"/>
<rect x="9" y="5" width="159" height="151" fill="#22D1EE"/>
<rect x="25" y="44" width="56" height="112" fill="#0E153A"/>
<rect x="97" y="97" width="57" height="59" fill="#0E153A"/>
<path d="M60.5 58H72.5V73H60.5V58Z" fill="#22D1EE"/>
<path d="M35 58H47V73H35V58Z" fill="#22D1EE"/>
<path d="M35 87H47V102H35V87Z" fill="#22D1EE"/>
<path d="M60.5 87H72.5V102H60.5V87Z" fill="#22D1EE"/>
<path d="M47 115.5H59V130.5H47V115.5Z" fill="#22D1EE"/>
<path d="M44.5 140.5H61.5V155.5H44.5V140.5Z" fill="#22D1EE"/>
<path d="M60.5 58H72.5V73H60.5V58Z" fill="#22D1EE"/>
<path d="M35 58H47V73H35V58Z" fill="#22D1EE"/>
<path d="M35 87H47V102H35V87Z" fill="#22D1EE"/>
<path d="M132 105.5H144V120.5H132V105.5Z" fill="#22D1EE"/>
<path d="M47 115.5H59V130.5H47V115.5Z" fill="#22D1EE"/>
<path d="M117.5 140.5H134.5V155.5H117.5V140.5Z" fill="#22D1EE"/>
<path d="M107.5 105.5H119.5V120.5H107.5V105.5Z" fill="#22D1EE"/>
<line x1="159.15" y1="101.857" x2="125.646" y2="68.3536" stroke="black"/>
<path d="M91.9963 101.398L125.5 67.8945" stroke="black"/>
<ellipse cx="54" cy="29.5" rx="16" ry="14.5" fill="#0E153A"/>
</g>
<defs>
<filter id="filter0_d" x="0" y="0" width="177" height="169" filterUnits="userSpaceOnUse" color-interpolation-filters="sRGB">
<feFlood flood-opacity="0" result="BackgroundImageFix"/>
<feColorMatrix in="SourceAlpha" type="matrix" values="0 0 0 0 0 0 0 0 0 0 0 0 0 0 0 0 0 0 127 0"/>
<feOffset dy="4"/>
<feGaussianBlur stdDeviation="2"/>
<feColorMatrix type="matrix" values="0 0 0 0 0 0 0 0 0 0 0 0 0 0 0 0 0 0 0.25 0"/>
<feBlend mode="normal" in2="BackgroundImageFix" result="effect1_dropShadow"/>
<feBlend mode="normal" in="SourceGraphic" in2="effect1_dropShadow" result="shape"/>
</filter>
</defs>
</svg>
