<svg width="127" height="30" viewBox="0 0 127 30" fill="none" xmlns="http://www.w3.org/2000/svg">
<rect x="27.5" y="0.5" width="99" height="29" fill="#22D1EE" stroke="#0E153A"/>
<path d="M17.2394 21.4389L27.5 15.8423V29.5L2.01308 29.5L17.2339 21.4419L17.234 21.4419L17.2394 21.4389Z" fill="#22D1EE" stroke="#0E153A"/>
<path d="M15.2353 7.55882L2 0.5L27.5 0.5V14.1629L15.2371 7.55976L15.2353 7.55882Z" fill="#22D1EE" stroke="#0E153A"/>
<path d="M27 1H29V29H27V1Z" fill="#22D1EE"/>
<rect x="27" y="14" width="1" height="2" fill="#0E153A"/>
<path d="M57.6514 16.4023H53.4814L52.5449 19H51.1914L54.9922 9.04688H56.1406L59.9482 19H58.6016L57.6514 16.4023ZM53.8779 15.3223H57.2617L55.5664 10.667L53.8779 15.3223ZM61.2881 19V9.04688H64.542C65.6221 9.04688 66.4333 9.27018 66.9756 9.7168C67.5225 10.1634 67.7959 10.8242 67.7959 11.6992C67.7959 12.1641 67.6637 12.5765 67.3994 12.9365C67.1351 13.292 66.7751 13.5677 66.3193 13.7637C66.8571 13.9141 67.2809 14.2012 67.5908 14.625C67.9053 15.0443 68.0625 15.5456 68.0625 16.1289C68.0625 17.0221 67.7731 17.724 67.1943 18.2344C66.6156 18.7448 65.7975 19 64.7402 19H61.2881ZM62.6006 14.3447V17.9268H64.7676C65.3783 17.9268 65.859 17.7695 66.21 17.4551C66.5654 17.1361 66.7432 16.6986 66.7432 16.1426C66.7432 14.944 66.0915 14.3447 64.7881 14.3447H62.6006ZM62.6006 13.292H64.583C65.1572 13.292 65.6152 13.1484 65.957 12.8613C66.3034 12.5742 66.4766 12.1846 66.4766 11.6924C66.4766 11.1455 66.3171 10.749 65.998 10.5029C65.679 10.2523 65.1937 10.127 64.542 10.127H62.6006V13.292ZM77.667 14.3447C77.667 15.32 77.5029 16.1722 77.1748 16.9014C76.8467 17.626 76.3818 18.1797 75.7803 18.5625C75.1787 18.9453 74.4769 19.1367 73.6748 19.1367C72.891 19.1367 72.196 18.9453 71.5898 18.5625C70.9837 18.1751 70.512 17.626 70.1748 16.915C69.8421 16.1995 69.6712 15.3724 69.6621 14.4336V13.7158C69.6621 12.7588 69.8285 11.9134 70.1611 11.1797C70.4938 10.446 70.9632 9.88542 71.5693 9.49805C72.18 9.10612 72.8773 8.91016 73.6611 8.91016C74.4587 8.91016 75.1605 9.10384 75.7666 9.49121C76.3773 9.87402 76.8467 10.4323 77.1748 11.166C77.5029 11.8952 77.667 12.7451 77.667 13.7158V14.3447ZM76.3613 13.7021C76.3613 12.5218 76.1243 11.6172 75.6504 10.9883C75.1764 10.3548 74.5133 10.0381 73.6611 10.0381C72.8317 10.0381 72.1777 10.3548 71.6992 10.9883C71.2253 11.6172 70.9814 12.4922 70.9678 13.6133V14.3447C70.9678 15.4886 71.207 16.3887 71.6855 17.0449C72.1686 17.6966 72.8317 18.0225 73.6748 18.0225C74.5225 18.0225 75.1787 17.7148 75.6436 17.0996C76.1084 16.4798 76.3477 15.5934 76.3613 14.4404V13.7021ZM86.6426 9.04688V15.8145C86.638 16.7533 86.3418 17.5212 85.7539 18.1182C85.1706 18.7152 84.3776 19.0501 83.375 19.123L83.0264 19.1367C81.9372 19.1367 81.069 18.8428 80.4219 18.2549C79.7747 17.667 79.4466 16.8581 79.4375 15.8281V9.04688H80.7363V15.7871C80.7363 16.5072 80.9346 17.0677 81.3311 17.4688C81.7275 17.8652 82.2926 18.0635 83.0264 18.0635C83.7692 18.0635 84.3366 17.8652 84.7285 17.4688C85.125 17.0723 85.3232 16.514 85.3232 15.7939V9.04688H86.6426ZM95.5908 10.127H92.3916V19H91.0859V10.127H87.8936V9.04688H95.5908V10.127Z" fill="black"/>
</svg>
