<svg width="128" height="32" viewBox="0 0 128 32" fill="none" xmlns="http://www.w3.org/2000/svg">
<rect x="0.5" y="0.5" width="99" height="29" fill="#22D1EE" stroke="#0E153A"/>
<path d="M110.761 8.56105L100.5 14.1577V0.5H125.987L110.766 8.55811L110.766 8.55807L110.761 8.56105Z" fill="#22D1EE" stroke="#0E153A"/>
<path d="M112.765 22.4412L126 29.5H100.5V15.8371L112.763 22.4402L112.765 22.4412Z" fill="#22D1EE" stroke="#0E153A"/>
<path d="M99 1H101V29H99V1Z" fill="#22D1EE"/>
<rect x="100" y="14" width="1" height="2" fill="#0E153A"/>
<path d="M16.6514 18.4023H12.4814L11.5449 21H10.1914L13.9922 11.0469H15.1406L18.9482 21H17.6016L16.6514 18.4023ZM12.8779 17.3223H16.2617L14.5664 12.667L12.8779 17.3223ZM23.5352 14.8613L25.9209 11.0469H27.4658L24.3213 15.9824L27.541 21H25.9824L23.5352 17.1172L21.0742 21H19.5225L22.749 15.9824L19.5977 11.0469H21.1357L23.5352 14.8613ZM34.6914 16.3994H30.3779V19.9268H35.3887V21H29.0654V11.0469H35.3203V12.127H30.3779V15.3262H34.6914V16.3994Z" fill="black"/>
<path d="M74.7923 14.0142V15.5852L42.0001 15.5852V14.0142L74.7923 14.0142Z" fill="#0E153A"/>
<rect x="86.531" y="13.8571" width="1.88523" height="18.8199" transform="rotate(90 86.531 13.8571)" fill="#0E153A"/>
<path d="M91.0933 14.7474L86.1745 15.6376L86.1745 13.9537L91.0933 14.7474Z" fill="#0E153A"/>
<path d="M73.6866 13.799L73.6866 11.1861L72.3013 9.12801L68.7889 7.43214L66.6044 6.63931L83.4696 6.74281L83.1529 13.799L73.6866 13.799Z" fill="#86D3FF"/>
<path d="M90.618 6.6499L85.3734 9.02557L83.578 11.1567V13.8118H74.2229V6.75471L90.618 6.6499Z" fill="#86D3FF"/>
<path d="M83.1178 15.7423V18.355L84.581 20.4511L88.1345 22.1635L90.3329 22.9606L73.628 22.9606V15.7423L83.1178 15.7423Z" fill="#86D3FF"/>
<path d="M66.0477 23.0677L71.2416 20.6378L73.0197 18.4581L73.628 15.7423H82.2846V22.9605L66.0477 23.0677Z" fill="#86D3FF"/>
<path d="M78.1545 25.6531C71.5861 25.6531 66.3803 24.4474 66.3803 22.96C66.3803 22.96 71.5861 22.96 78.1545 22.96C84.723 22.96 90.0477 22.96 90.0477 22.96C90.0477 24.4474 84.723 25.6531 78.1545 25.6531Z" fill="#86D3FF"/>
<path d="M78.6417 6.80091C72.1849 6.80091 66.9506 6.69318 66.9506 6.69318C66.9506 5.20578 72.1849 4 78.6417 4C85.0986 4 90.3329 5.20578 90.3329 6.69318C90.3329 6.69318 85.0986 6.80091 78.6417 6.80091Z" fill="#86D3FF"/>
</svg>
