<svg width="127" height="30" viewBox="0 0 127 30" fill="none" xmlns="http://www.w3.org/2000/svg">
<rect x="27.5" y="0.5" width="99" height="29" fill="#22D1EE" stroke="#0E153A"/>
<path d="M17.2394 21.4389L27.5 15.8423V29.5L2.01308 29.5L17.2339 21.4419L17.234 21.4419L17.2394 21.4389Z" fill="#22D1EE" stroke="#0E153A"/>
<path d="M15.2353 7.55882L2 0.5L27.5 0.5V14.1629L15.2371 7.55976L15.2353 7.55882Z" fill="#22D1EE" stroke="#0E153A"/>
<path d="M27 1H29V29H27V1Z" fill="#22D1EE"/>
<rect x="27" y="14" width="1" height="2" fill="#0E153A"/>
<path d="M52.4678 15.1035V19H51.1553V9.04688H54.8262C55.9154 9.04688 56.7676 9.32487 57.3828 9.88086C58.0026 10.4368 58.3125 11.1729 58.3125 12.0889C58.3125 13.055 58.0094 13.8001 57.4033 14.3242C56.8018 14.8438 55.9382 15.1035 54.8125 15.1035H52.4678ZM52.4678 14.0303H54.8262C55.528 14.0303 56.0658 13.8662 56.4395 13.5381C56.8132 13.2054 57 12.7269 57 12.1025C57 11.5101 56.8132 11.0361 56.4395 10.6807C56.0658 10.3252 55.5531 10.1406 54.9014 10.127H52.4678V14.0303ZM67.6436 14.3447C67.6436 15.32 67.4795 16.1722 67.1514 16.9014C66.8232 17.626 66.3584 18.1797 65.7568 18.5625C65.1553 18.9453 64.4535 19.1367 63.6514 19.1367C62.8675 19.1367 62.1725 18.9453 61.5664 18.5625C60.9603 18.1751 60.4886 17.626 60.1514 16.915C59.8187 16.1995 59.6478 15.3724 59.6387 14.4336V13.7158C59.6387 12.7588 59.805 11.9134 60.1377 11.1797C60.4704 10.446 60.9398 9.88542 61.5459 9.49805C62.1566 9.10612 62.8538 8.91016 63.6377 8.91016C64.4352 8.91016 65.137 9.10384 65.7432 9.49121C66.3538 9.87402 66.8232 10.4323 67.1514 11.166C67.4795 11.8952 67.6436 12.7451 67.6436 13.7158V14.3447ZM66.3379 13.7021C66.3379 12.5218 66.1009 11.6172 65.627 10.9883C65.153 10.3548 64.4899 10.0381 63.6377 10.0381C62.8083 10.0381 62.1543 10.3548 61.6758 10.9883C61.2018 11.6172 60.958 12.4922 60.9443 13.6133V14.3447C60.9443 15.4886 61.1836 16.3887 61.6621 17.0449C62.1452 17.6966 62.8083 18.0225 63.6514 18.0225C64.499 18.0225 65.1553 17.7148 65.6201 17.0996C66.085 16.4798 66.3242 15.5934 66.3379 14.4404V13.7021ZM72.5449 14.5635C71.4193 14.2399 70.599 13.8434 70.084 13.374C69.5736 12.9001 69.3184 12.3167 69.3184 11.624C69.3184 10.8402 69.6305 10.193 70.2549 9.68262C70.8838 9.16764 71.6995 8.91016 72.7021 8.91016C73.3857 8.91016 73.9941 9.04232 74.5273 9.30664C75.0651 9.57096 75.4798 9.93555 75.7715 10.4004C76.0677 10.8652 76.2158 11.3734 76.2158 11.9248H74.8965C74.8965 11.3232 74.7051 10.8516 74.3223 10.5098C73.9395 10.1634 73.3994 9.99023 72.7021 9.99023C72.055 9.99023 71.5492 10.1338 71.1846 10.4209C70.8245 10.7035 70.6445 11.0977 70.6445 11.6035C70.6445 12.0091 70.8154 12.3532 71.1572 12.6357C71.5036 12.9137 72.0892 13.1689 72.9141 13.4014C73.7435 13.6338 74.3906 13.8913 74.8555 14.1738C75.3249 14.4518 75.6712 14.7777 75.8945 15.1514C76.1224 15.5251 76.2363 15.9648 76.2363 16.4707C76.2363 17.2773 75.9219 17.9245 75.293 18.4121C74.6641 18.8952 73.8232 19.1367 72.7705 19.1367C72.0869 19.1367 71.4489 19.0068 70.8564 18.7471C70.264 18.4827 69.806 18.1227 69.4824 17.667C69.1634 17.2113 69.0039 16.694 69.0039 16.1152H70.3232C70.3232 16.7168 70.5443 17.193 70.9863 17.5439C71.4329 17.8903 72.0277 18.0635 72.7705 18.0635C73.4632 18.0635 73.9941 17.9222 74.3633 17.6396C74.7324 17.3571 74.917 16.972 74.917 16.4844C74.917 15.9967 74.7461 15.6208 74.4043 15.3564C74.0625 15.0876 73.4427 14.8232 72.5449 14.5635ZM84.8018 10.127H81.6025V19H80.2969V10.127H77.1045V9.04688H84.8018V10.127ZM89.1016 14.5635C87.9759 14.2399 87.1556 13.8434 86.6406 13.374C86.1302 12.9001 85.875 12.3167 85.875 11.624C85.875 10.8402 86.1872 10.193 86.8115 9.68262C87.4404 9.16764 88.2562 8.91016 89.2588 8.91016C89.9424 8.91016 90.5508 9.04232 91.084 9.30664C91.6217 9.57096 92.0365 9.93555 92.3281 10.4004C92.6243 10.8652 92.7725 11.3734 92.7725 11.9248H91.4531C91.4531 11.3232 91.2617 10.8516 90.8789 10.5098C90.4961 10.1634 89.9561 9.99023 89.2588 9.99023C88.6117 9.99023 88.1058 10.1338 87.7412 10.4209C87.3812 10.7035 87.2012 11.0977 87.2012 11.6035C87.2012 12.0091 87.3721 12.3532 87.7139 12.6357C88.0602 12.9137 88.6458 13.1689 89.4707 13.4014C90.3001 13.6338 90.9473 13.8913 91.4121 14.1738C91.8815 14.4518 92.2279 14.7777 92.4512 15.1514C92.679 15.5251 92.793 15.9648 92.793 16.4707C92.793 17.2773 92.4785 17.9245 91.8496 18.4121C91.2207 18.8952 90.3799 19.1367 89.3271 19.1367C88.6436 19.1367 88.0055 19.0068 87.4131 18.7471C86.8206 18.4827 86.3626 18.1227 86.0391 17.667C85.7201 17.2113 85.5605 16.694 85.5605 16.1152H86.8799C86.8799 16.7168 87.1009 17.193 87.543 17.5439C87.9896 17.8903 88.5843 18.0635 89.3271 18.0635C90.0199 18.0635 90.5508 17.9222 90.9199 17.6396C91.2891 17.3571 91.4736 16.972 91.4736 16.4844C91.4736 15.9967 91.3027 15.6208 90.9609 15.3564C90.6191 15.0876 89.9993 14.8232 89.1016 14.5635Z" fill="black"/>
</svg>
