<svg width="127" height="30" viewBox="0 0 127 30" fill="none" xmlns="http://www.w3.org/2000/svg">
<rect x="27.5" y="0.5" width="99" height="29" fill="#22D1EE" stroke="#0E153A"/>
<path d="M17.2394 21.4389L27.5 15.8423V29.5L2.01308 29.5L17.2339 21.4419L17.234 21.4419L17.2394 21.4389Z" fill="#22D1EE" stroke="#0E153A"/>
<path d="M15.2353 7.55882L2 0.5L27.5 0.5V14.1629L15.2371 7.55976L15.2353 7.55882Z" fill="#22D1EE" stroke="#0E153A"/>
<path d="M27 1H29V29H27V1Z" fill="#22D1EE"/>
<rect x="27" y="14" width="1" height="2" fill="#0E153A"/>
<path d="M74.0879 15.5635C72.9622 15.2399 72.1419 14.8434 71.627 14.374C71.1165 13.9001 70.8613 13.3167 70.8613 12.624C70.8613 11.8402 71.1735 11.193 71.7979 10.6826C72.4268 10.1676 73.2425 9.91016 74.2451 9.91016C74.9287 9.91016 75.5371 10.0423 76.0703 10.3066C76.6081 10.571 77.0228 10.9355 77.3145 11.4004C77.6107 11.8652 77.7588 12.3734 77.7588 12.9248H76.4395C76.4395 12.3232 76.248 11.8516 75.8652 11.5098C75.4824 11.1634 74.9424 10.9902 74.2451 10.9902C73.598 10.9902 73.0921 11.1338 72.7275 11.4209C72.3675 11.7035 72.1875 12.0977 72.1875 12.6035C72.1875 13.0091 72.3584 13.3532 72.7002 13.6357C73.0465 13.9137 73.6322 14.1689 74.457 14.4014C75.2865 14.6338 75.9336 14.8913 76.3984 15.1738C76.8678 15.4518 77.2142 15.7777 77.4375 16.1514C77.6654 16.5251 77.7793 16.9648 77.7793 17.4707C77.7793 18.2773 77.4648 18.9245 76.8359 19.4121C76.207 19.8952 75.3662 20.1367 74.3135 20.1367C73.6299 20.1367 72.9919 20.0068 72.3994 19.7471C71.807 19.4827 71.349 19.1227 71.0254 18.667C70.7064 18.2113 70.5469 17.694 70.5469 17.1152H71.8662C71.8662 17.7168 72.0872 18.193 72.5293 18.5439C72.9759 18.8903 73.5706 19.0635 74.3135 19.0635C75.0062 19.0635 75.5371 18.9222 75.9062 18.6396C76.2754 18.3571 76.46 17.972 76.46 17.4844C76.46 16.9967 76.2891 16.6208 75.9473 16.3564C75.6055 16.0876 74.9857 15.8232 74.0879 15.5635ZM81.6143 16.8623L81.8057 18.1748L82.0859 16.9922L84.0547 10.0469H85.1621L87.083 16.9922L87.3564 18.1953L87.5684 16.8555L89.1133 10.0469H90.4326L88.0195 20H86.8232L84.7725 12.7471L84.6152 11.9883L84.458 12.7471L82.332 20H81.1357L78.7295 10.0469H80.042L81.6143 16.8623ZM99.5518 15.3447C99.5518 16.32 99.3877 17.1722 99.0596 17.9014C98.7314 18.626 98.2666 19.1797 97.665 19.5625C97.0635 19.9453 96.3617 20.1367 95.5596 20.1367C94.7757 20.1367 94.0807 19.9453 93.4746 19.5625C92.8685 19.1751 92.3968 18.626 92.0596 17.915C91.7269 17.1995 91.556 16.3724 91.5469 15.4336V14.7158C91.5469 13.7588 91.7132 12.9134 92.0459 12.1797C92.3786 11.446 92.848 10.8854 93.4541 10.498C94.0648 10.1061 94.762 9.91016 95.5459 9.91016C96.3434 9.91016 97.0452 10.1038 97.6514 10.4912C98.262 10.874 98.7314 11.4323 99.0596 12.166C99.3877 12.8952 99.5518 13.7451 99.5518 14.7158V15.3447ZM98.2461 14.7021C98.2461 13.5218 98.0091 12.6172 97.5352 11.9883C97.0612 11.3548 96.3981 11.0381 95.5459 11.0381C94.7165 11.0381 94.0625 11.3548 93.584 11.9883C93.11 12.6172 92.8662 13.4922 92.8525 14.6133V15.3447C92.8525 16.4886 93.0918 17.3887 93.5703 18.0449C94.0534 18.6966 94.7165 19.0225 95.5596 19.0225C96.4072 19.0225 97.0635 18.7148 97.5283 18.0996C97.9932 17.4798 98.2324 16.5934 98.2461 15.4404V14.7021ZM105.171 15.9736H102.833V20H101.514V10.0469H104.809C105.93 10.0469 106.791 10.3021 107.393 10.8125C107.999 11.3229 108.302 12.0658 108.302 13.041C108.302 13.6608 108.133 14.2008 107.796 14.6611C107.463 15.1214 106.998 15.4655 106.401 15.6934L108.739 19.918V20H107.331L105.171 15.9736ZM102.833 14.9004H104.85C105.501 14.9004 106.019 14.7318 106.401 14.3945C106.789 14.0573 106.982 13.6061 106.982 13.041C106.982 12.4258 106.798 11.9541 106.429 11.626C106.064 11.2979 105.535 11.1315 104.843 11.127H102.833V14.9004ZM110.147 20V10.0469H112.957C113.823 10.0469 114.589 10.2383 115.254 10.6211C115.919 11.0039 116.432 11.5485 116.792 12.2549C117.157 12.9613 117.341 13.7725 117.346 14.6885V15.3242C117.346 16.263 117.163 17.0856 116.799 17.792C116.439 18.4984 115.922 19.0407 115.247 19.4189C114.577 19.7972 113.796 19.9909 112.902 20H110.147ZM111.46 11.127V18.9268H112.841C113.853 18.9268 114.639 18.6123 115.199 17.9834C115.764 17.3545 116.047 16.459 116.047 15.2969V14.7158C116.047 13.5856 115.78 12.7083 115.247 12.084C114.718 11.4551 113.966 11.1361 112.991 11.127H111.46Z" fill="black"/>
<rect x="33.4904" y="17.0271" width="4.05409" height="22.7677" transform="rotate(-90 33.4904 17.0271)" fill="#86D3FF"/>
<rect x="54.0689" y="21.8182" width="13.6365" height="3.50272" transform="rotate(-90 54.0689 21.8182)" fill="#0E153A"/>
<rect x="57.5716" y="16.2899" width="2.57987" height="8.42842" transform="rotate(-90 57.5716 16.2899)" fill="#0E153A"/>
<path d="M31.0823 14.9386L33.5451 12.8108V17.0665L31.0823 14.9386Z" fill="#86D3FF"/>
<rect x="33.4904" y="12.973" width="0.245702" height="20.5785" transform="rotate(-90 33.4904 12.973)" fill="#0E153A"/>
<rect x="33.4904" y="17.1499" width="0.245702" height="20.5785" transform="rotate(-90 33.4904 17.1499)" fill="#0E153A"/>
<path d="M31.1594 15.1102L31.0008 14.8791L33.4904 12.7273L33.649 12.9584L31.1594 15.1102Z" fill="#0E153A"/>
<path d="M31 14.9757L31.1586 14.7446L33.674 16.9187L33.5154 17.1498L31 14.9757Z" fill="#0E153A"/>
<rect x="31.3012" y="15.0615" width="0.245702" height="22.7677" transform="rotate(-90 31.3012 15.0615)" fill="#0E153A"/>
<path d="M54.0689 8.1818L52.9195 5.17195H57.5716V8.1818H54.0689Z" fill="#86D3FF"/>
<path d="M52.9195 24.8281L54.0689 21.8183H57.5716V24.8281H52.9195Z" fill="#86D3FF"/>
<path d="M52.8648 24.6438V24.8895H57.5716V24.6438H52.8648Z" fill="#0E153A"/>
<path d="M52.8648 5.11047V5.35618L57.5716 5.35618V5.11047L52.8648 5.11047Z" fill="#0E153A"/>
<rect x="57.3527" y="24.6438" width="2.82557" height="0.21892" transform="rotate(-90 57.3527 24.6438)" fill="#0E153A"/>
<rect x="57.3527" y="8.18176" width="2.82557" height="0.21892" transform="rotate(-90 57.3527 8.18176)" fill="#0E153A"/>
<path d="M53.029 24.8895L52.7553 24.8895L54.1479 21.2781L54.3494 21.3741L53.029 24.8895Z" fill="#0E153A"/>
<path d="M52.7553 5.11045L53.029 5.11046L54.2399 8.45428L54.0384 8.55029L52.7553 5.11045Z" fill="#0E153A"/>
<path d="M65.5484 16.2899L64.4675 13.7101L64.6864 13.7101L65.781 16.2899L65.5484 16.2899Z" fill="#86D3FF"/>
<path d="M64.9463 16.2899L63.8654 13.7101L64.0843 13.7101L65.1789 16.2899L64.9463 16.2899Z" fill="#86D3FF"/>
<path d="M64.3186 16.2899L63.2377 13.7101L63.4566 13.7101L64.5512 16.2899L64.3186 16.2899Z" fill="#86D3FF"/>
<path d="M63.7012 16.2899L62.6203 13.7101L62.8392 13.7101L63.9338 16.2899L63.7012 16.2899Z" fill="#86D3FF"/>
<path d="M63.0051 16.2899L61.9241 13.7101L62.1431 13.7101L63.2377 16.2899L63.0051 16.2899Z" fill="#86D3FF"/>
<path d="M62.3877 16.2899L61.3068 13.7101L61.5257 13.7101L62.6203 16.2899L62.3877 16.2899Z" fill="#86D3FF"/>
<path d="M61.7857 16.2899L60.7048 13.7101L60.9237 13.7101L62.0184 16.2899L61.7857 16.2899Z" fill="#86D3FF"/>
<path d="M62.3877 16.2899L61.3068 13.7101L61.5257 13.7101L62.6203 16.2899L62.3877 16.2899Z" fill="#86D3FF"/>
<path d="M61.0742 16.2899L59.9933 13.7101L60.2122 13.7101L61.3069 16.2899L61.0742 16.2899Z" fill="#86D3FF"/>
<path d="M60.308 16.2899L59.2271 13.7101L59.446 13.7101L60.5407 16.2899L60.308 16.2899Z" fill="#86D3FF"/>
<path d="M59.5966 16.2899L58.5156 13.7101L58.7346 13.7101L59.8292 16.2899L59.5966 16.2899Z" fill="#86D3FF"/>
<path d="M58.9398 16.2899L57.8589 13.7101L58.0778 13.7101L59.1724 16.2899L58.9398 16.2899Z" fill="#86D3FF"/>
<path d="M58.1052 16.2899L57.5716 13.7101L57.681 13.7101L58.3378 16.2899L58.1052 16.2899Z" fill="#86D3FF"/>
</svg>
