<svg width="130" height="184" viewBox="0 0 130 184" fill="none" xmlns="http://www.w3.org/2000/svg">
<path d="M56 83.5638H71.1351L98 133.766L80.973 183.564H56L69.6216 133.766L56 83.5638Z" fill="#0E153A"/>
<circle cx="64" cy="64.5638" r="21" fill="#22D1EE"/>
<path d="M64.153 43.4923L64 43.4686L63.8471 43.4923L57.7077 44.4425L51.9734 25.3284C51.9712 25.3161 51.9686 25.3011 51.9657 25.2834C51.9547 25.2185 51.9388 25.1177 51.9208 24.9836C51.8848 24.7154 51.8405 24.3148 51.8109 23.8029C51.7515 22.7785 51.751 21.3133 51.9907 19.5756C52.4695 16.1039 53.905 11.5511 57.7475 7.22825C59.759 4.96528 61.2177 3.35749 62.384 2.31827C63.5831 1.24981 64.2602 0.984482 64.7143 1.0007C65.1442 1.01606 65.7117 1.29972 66.6553 2.37268C67.4933 3.32556 68.4638 4.70207 69.7715 6.55696C69.9051 6.74648 70.0422 6.941 70.1831 7.14058C73.0802 11.2448 74.6663 15.9817 75.5254 19.7251C75.9537 21.5912 76.1982 23.1965 76.3354 24.3323C76.404 24.8998 76.4456 25.3493 76.47 25.6544C76.479 25.7664 76.4856 25.8589 76.4904 25.9306L70.3184 44.4465L64.153 43.4923Z" fill="#0E153A" stroke="#22D1EE" stroke-width="2"/>
<path d="M76.5775 48.4783L76.4755 48.3618L76.3432 48.2816L71.0293 45.0631L78.9229 26.735C78.9292 26.7242 78.9368 26.711 78.9459 26.6956C78.9793 26.6388 79.0319 26.5514 79.1043 26.4371C79.2491 26.2085 79.4727 25.8731 79.779 25.462C80.392 24.639 81.3334 23.5163 82.634 22.3392C85.2323 19.9876 89.2585 17.4226 94.9807 16.581C97.9762 16.1404 100.127 15.8465 101.689 15.8001C103.294 15.7524 103.983 15.9843 104.321 16.2886C104.64 16.5767 104.892 17.1588 104.926 18.5873C104.955 19.8559 104.814 21.5341 104.623 23.7956C104.604 24.0267 104.584 24.2639 104.563 24.5073C104.144 29.5135 102.315 34.1617 100.567 37.5816C99.6951 39.2864 98.8506 40.6733 98.2256 41.6315C97.9133 42.1104 97.6563 42.4815 97.4789 42.7309C97.4138 42.8224 97.3594 42.8975 97.317 42.9555L80.6872 53.1723L76.5775 48.4783Z" fill="#0E153A" stroke="#22D1EE" stroke-width="2"/>
<path d="M84.3626 59.2882L84.3593 59.1334L84.3095 58.9869L82.3077 53.1057L100.136 44.1395C100.147 44.1352 100.162 44.13 100.179 44.1241C100.241 44.102 100.337 44.0688 100.466 44.0278C100.724 43.9458 101.111 43.8326 101.61 43.7145C102.608 43.4781 104.051 43.2232 105.804 43.1575C109.306 43.0263 114.039 43.6493 118.963 46.6828C121.541 48.2707 123.378 49.4282 124.604 50.3963C125.864 51.3916 126.243 52.0123 126.306 52.4624C126.366 52.8884 126.185 53.4966 125.292 54.6122C124.499 55.6029 123.312 56.7976 121.712 58.4075C121.549 58.572 121.381 58.7408 121.209 58.9142C117.67 62.48 113.281 64.8645 109.744 66.3607C107.98 67.1065 106.442 67.626 105.347 67.9584C104.8 68.1245 104.365 68.2435 104.068 68.3206C103.96 68.3488 103.87 68.3714 103.8 68.3886L84.4935 65.5256L84.3626 59.2882Z" fill="#0E153A" stroke="#22D1EE" stroke-width="2"/>
<path d="M46.8113 73.3966L46.8597 73.5437L46.9502 73.6692L50.584 78.7081L36.1566 92.495C36.1466 92.5025 36.1344 92.5116 36.12 92.5223C36.0671 92.5615 35.9845 92.6214 35.8732 92.6983C35.6506 92.8522 35.3137 93.0735 34.8711 93.3323C33.9853 93.8503 32.6801 94.5159 31.0229 95.0913C27.7123 96.2407 23.004 97.0287 17.4079 95.5675C14.4783 94.8027 12.3835 94.2328 10.9281 93.6654C9.43169 93.0821 8.88792 92.5993 8.69619 92.1873C8.51471 91.7973 8.5098 91.1628 9.03743 89.8349C9.50601 88.6557 10.2919 87.1661 11.351 85.1588C11.4592 84.9538 11.5702 84.7433 11.6841 84.5271C14.0257 80.0826 17.5262 76.5188 20.4716 74.0538C21.9399 72.825 23.2592 71.8784 24.2089 71.2405C24.6835 70.9217 25.065 70.6806 25.3258 70.5203C25.4215 70.4615 25.5009 70.4136 25.5626 70.3768L44.8625 67.47L46.8113 73.3966Z" fill="#0E153A" stroke="#22D1EE" stroke-width="2"/>
<path d="M82.6156 73.9925L82.701 73.8723L82.7481 73.7324L84.8442 67.5066L104.625 70.8281C104.636 70.8315 104.65 70.8356 104.666 70.8405C104.728 70.8596 104.825 70.8904 104.953 70.9342C105.208 71.022 105.585 71.1621 106.054 71.3662C106.992 71.7747 108.295 72.4379 109.726 73.4488C112.584 75.4672 115.956 78.8712 117.978 84.4269C119.036 87.3337 119.775 89.4284 120.146 90.9923C120.525 92.5918 120.449 93.372 120.199 93.8234C119.962 94.2531 119.412 94.6581 118.015 95.0505C116.766 95.4013 115.077 95.6834 112.802 96.0634C112.569 96.1023 112.331 96.1421 112.086 96.1832C107.05 97.0274 102.078 96.3594 98.3371 95.4638C96.4722 95.0173 94.9269 94.5175 93.8508 94.1306C93.3131 93.9372 92.8934 93.7724 92.6105 93.6569C92.5111 93.6163 92.4286 93.5818 92.3638 93.5544L78.7953 79.3696L82.6156 73.9925Z" fill="#0E153A" stroke="#22D1EE" stroke-width="2"/>
<path d="M56.4987 84.1602L56.6232 84.2392L56.7652 84.2789L63.0955 86.0477L60.8163 105.976C60.8135 105.988 60.8101 106.002 60.8061 106.018C60.7903 106.081 60.7647 106.18 60.7275 106.309C60.6533 106.569 60.5331 106.952 60.3539 107.431C59.9951 108.39 59.401 109.726 58.4663 111.208C56.6001 114.167 53.3766 117.712 47.9326 120.022C45.0843 121.23 43.0304 122.077 41.4876 122.529C39.9096 122.992 39.126 122.956 38.6616 122.73C38.2194 122.515 37.7859 121.987 37.3206 120.612C36.9045 119.383 36.534 117.711 36.0348 115.459C35.9838 115.228 35.9314 114.992 35.8775 114.75C34.7697 109.765 35.1758 104.764 35.874 100.981C36.2221 99.0955 36.6402 97.5262 36.9703 96.4313C37.1352 95.8842 37.2778 95.4565 37.3783 95.1679C37.4136 95.0665 37.4437 94.9824 37.4677 94.9163L50.9258 80.6251L56.4987 84.1602Z" fill="#0E153A" stroke="#22D1EE" stroke-width="2"/>
<path d="M70.9935 83.1772L71.1295 83.1433L71.251 83.0732L77.286 79.5914L90.3399 94.9732C90.346 94.9826 90.3532 94.9938 90.3615 95.0067C90.3965 95.0615 90.4499 95.1476 90.518 95.2634C90.6542 95.4953 90.8484 95.8462 91.0693 96.306C91.5114 97.2262 92.0583 98.5781 92.4622 100.281C93.2682 103.679 93.509 108.485 91.1942 114.087C89.984 117.015 89.0923 119.112 88.2858 120.562C87.4649 122.038 86.8487 122.618 86.3016 122.819C85.7778 123.011 85.0435 122.953 83.6913 122.355C82.4753 121.817 80.9657 120.942 78.9334 119.763C78.7255 119.642 78.5121 119.518 78.293 119.392C73.7926 116.785 70.4002 113.053 68.1239 109.945C66.9887 108.394 66.1389 107.01 65.5744 106.016C65.2924 105.519 65.082 105.121 64.9433 104.849C64.8969 104.759 64.8586 104.682 64.8282 104.62L64.207 84.8715L70.9935 83.1772Z" fill="#0E153A" stroke="#22D1EE" stroke-width="2"/>
<path d="M45.1541 59.2605L45.1043 59.407L45.101 59.5618L44.9706 65.7729L25.1512 68.1009C25.1387 68.1009 25.1235 68.1009 25.1056 68.1008C25.0397 68.1002 24.9377 68.0984 24.8025 68.0928C24.5321 68.0817 24.1299 68.0558 23.6207 67.9961C22.6015 67.8767 21.1585 67.6228 19.4888 67.085C16.153 66.0105 11.9186 63.8063 8.3287 59.2716C6.4494 56.8977 5.11935 55.1819 4.29845 53.8528C3.45444 52.4864 3.31071 51.7736 3.40554 51.3291C3.49531 50.9085 3.87322 50.3988 5.09374 49.6558C6.17765 48.9961 7.70176 48.2794 9.75555 47.3137C9.9654 47.215 10.1808 47.1137 10.4018 47.0096C14.9467 44.8693 19.8871 44.1298 23.7228 43.9338C25.6349 43.836 27.2583 43.874 28.4006 43.9361C28.9715 43.9671 29.4213 44.0041 29.726 44.0331C29.8379 44.0437 29.9301 44.0532 30.0016 44.061L47.1644 53.3545L45.1541 59.2605Z" fill="#0E153A" stroke="#22D1EE" stroke-width="2"/>
<path d="M51.2023 47.4603L51.0699 47.5404L50.968 47.6569L46.8756 52.3311L30.1966 41.3748C30.1871 41.3667 30.1754 41.3569 30.1618 41.3453C30.1117 41.3026 30.0347 41.2356 29.9347 41.1444C29.7348 40.9621 29.4433 40.6837 29.0916 40.3107C28.3876 39.5641 27.4454 38.442 26.512 36.9567C24.6473 33.9895 22.8204 29.5791 22.9853 23.7978C23.0716 20.7713 23.1556 18.602 23.381 17.0562C23.6128 15.4669 23.9609 14.8285 24.3192 14.549C24.6584 14.2844 25.2755 14.1369 26.688 14.3523C27.9424 14.5436 29.5706 14.9743 31.7647 15.5547C31.9889 15.614 32.219 15.6748 32.4552 15.7371C37.3126 17.0189 41.5724 19.6281 44.6368 21.9435C46.1644 23.0977 47.3835 24.1702 48.2187 24.9521C48.6361 25.3428 48.9569 25.6603 49.1717 25.8784C49.2505 25.9584 49.3151 26.025 49.3648 26.0768L56.5386 44.2281L51.2023 47.4603Z" fill="#0E153A" stroke="#22D1EE" stroke-width="2"/>
</svg>
