<svg width="137" height="130" viewBox="0 0 137 130" fill="none" xmlns="http://www.w3.org/2000/svg">
<rect width="137" height="130" fill="#0E153A"/>
<rect x="6" y="6" width="125" height="118" fill="#22D1EE"/>
<rect x="38" y="13" width="27" height="24" fill="#0E153A"/>
<path d="M48 38H56V46H48V38Z" fill="#0E153A"/>
<rect x="42" y="47" width="21" height="31" fill="#0E153A"/>
<rect x="22" y="71" width="19" height="7" fill="#0E153A"/>
<rect x="64" y="71" width="19" height="7" fill="#0E153A"/>
<rect x="22" y="79" width="9" height="31" fill="#0E153A"/>
<rect x="74" y="79" width="9" height="31" fill="#0E153A"/>
<rect x="70" y="111" width="18" height="8" fill="#0E153A"/>
<rect x="18" y="111" width="18" height="8" fill="#0E153A"/>
<rect x="64" y="47" width="36" height="8" fill="#0E153A"/>
<path d="M96.1765 76.7703V55.7703H100.176V76.7703H96.1765Z" fill="#0E153A"/>
<path d="M96.1765 46V25H100.176V46H96.1765Z" fill="#0E153A"/>
<path d="M100 45.5L118.187 35L120.187 38.4641L102 48.9641L100 45.5Z" fill="#0E153A"/>
<path d="M102 53.0359L120.187 63.5359L118.187 67L100 56.5L102 53.0359Z" fill="#0E153A"/>
<rect x="102" y="49" width="21" height="4" fill="#0E153A"/>
<path d="M52 35L45.0718 29H58.9282L52 35Z" fill="#22D1EE"/>
<path d="M45.5 16L46.0613 17.7275H47.8776L46.4082 18.7951L46.9695 20.5225L45.5 19.4549L44.0305 20.5225L44.5918 18.7951L43.1224 17.7275H44.9387L45.5 16Z" fill="#22D1EE"/>
<path d="M57.5 16L58.0613 17.7275H59.8776L58.4082 18.7951L58.9695 20.5225L57.5 19.4549L56.0305 20.5225L56.5918 18.7951L55.1224 17.7275H56.9387L57.5 16Z" fill="#22D1EE"/>
</svg>
