<svg width="128" height="30" viewBox="0 0 128 30" fill="none" xmlns="http://www.w3.org/2000/svg">
<rect x="0.5" y="0.5" width="99" height="29" fill="#22D1EE" stroke="#0E153A"/>
<path d="M110.761 8.56105L100.5 14.1577V0.5H125.987L110.766 8.55811L110.766 8.55807L110.761 8.56105Z" fill="#22D1EE" stroke="#0E153A"/>
<path d="M112.765 22.4412L126 29.5H100.5V15.8371L112.763 22.4402L112.765 22.4412Z" fill="#22D1EE" stroke="#0E153A"/>
<path d="M99 1H101V29H99V1Z" fill="#22D1EE"/>
<rect x="100" y="14" width="1" height="2" fill="#0E153A"/>
<path d="M15.5039 17.6943C15.1667 18.1774 14.695 18.5397 14.0889 18.7812C13.4873 19.0182 12.7855 19.1367 11.9834 19.1367C11.1722 19.1367 10.4521 18.9476 9.82324 18.5693C9.19434 18.1865 8.70671 17.6442 8.36035 16.9424C8.01855 16.2406 7.8431 15.4271 7.83398 14.502V13.6338C7.83398 12.1344 8.18262 10.9723 8.87988 10.1475C9.58171 9.32259 10.5661 8.91016 11.833 8.91016C12.8721 8.91016 13.7083 9.17676 14.3418 9.70996C14.9753 10.2386 15.3626 10.9906 15.5039 11.9658H14.1914C13.9453 10.6488 13.1615 9.99023 11.8398 9.99023C10.9603 9.99023 10.2926 10.3001 9.83691 10.9199C9.38574 11.5352 9.15788 12.4284 9.15332 13.5996V14.4131C9.15332 15.5296 9.40853 16.4183 9.91895 17.0791C10.4294 17.7354 11.1198 18.0635 11.9902 18.0635C12.4824 18.0635 12.9131 18.0088 13.2822 17.8994C13.6514 17.79 13.9567 17.6055 14.1982 17.3457V15.1104H11.8945V14.0439H15.5039V17.6943ZM25.3545 14.3447C25.3545 15.32 25.1904 16.1722 24.8623 16.9014C24.5342 17.626 24.0693 18.1797 23.4678 18.5625C22.8662 18.9453 22.1644 19.1367 21.3623 19.1367C20.5785 19.1367 19.8835 18.9453 19.2773 18.5625C18.6712 18.1751 18.1995 17.626 17.8623 16.915C17.5296 16.1995 17.3587 15.3724 17.3496 14.4336V13.7158C17.3496 12.7588 17.516 11.9134 17.8486 11.1797C18.1813 10.446 18.6507 9.88542 19.2568 9.49805C19.8675 9.10612 20.5648 8.91016 21.3486 8.91016C22.1462 8.91016 22.848 9.10384 23.4541 9.49121C24.0648 9.87402 24.5342 10.4323 24.8623 11.166C25.1904 11.8952 25.3545 12.7451 25.3545 13.7158V14.3447ZM24.0488 13.7021C24.0488 12.5218 23.8118 11.6172 23.3379 10.9883C22.8639 10.3548 22.2008 10.0381 21.3486 10.0381C20.5192 10.0381 19.8652 10.3548 19.3867 10.9883C18.9128 11.6172 18.6689 12.4922 18.6553 13.6133V14.3447C18.6553 15.4886 18.8945 16.3887 19.373 17.0449C19.8561 17.6966 20.5192 18.0225 21.3623 18.0225C22.21 18.0225 22.8662 17.7148 23.3311 17.0996C23.7959 16.4798 24.0352 15.5934 24.0488 14.4404V13.7021ZM30.7959 19V9.04688H34.0498C35.1299 9.04688 35.9411 9.27018 36.4834 9.7168C37.0303 10.1634 37.3037 10.8242 37.3037 11.6992C37.3037 12.1641 37.1715 12.5765 36.9072 12.9365C36.6429 13.292 36.2829 13.5677 35.8271 13.7637C36.3649 13.9141 36.7887 14.2012 37.0986 14.625C37.4131 15.0443 37.5703 15.5456 37.5703 16.1289C37.5703 17.0221 37.2809 17.724 36.7021 18.2344C36.1234 18.7448 35.3053 19 34.248 19H30.7959ZM32.1084 14.3447V17.9268H34.2754C34.8861 17.9268 35.3669 17.7695 35.7178 17.4551C36.0732 17.1361 36.251 16.6986 36.251 16.1426C36.251 14.944 35.5993 14.3447 34.2959 14.3447H32.1084ZM32.1084 13.292H34.0908C34.665 13.292 35.123 13.1484 35.4648 12.8613C35.8112 12.5742 35.9844 12.1846 35.9844 11.6924C35.9844 11.1455 35.8249 10.749 35.5059 10.5029C35.1868 10.2523 34.7015 10.127 34.0498 10.127H32.1084V13.292ZM45.0146 16.4023H40.8447L39.9082 19H38.5547L42.3555 9.04688H43.5039L47.3115 19H45.9648L45.0146 16.4023ZM41.2412 15.3223H44.625L42.9297 10.667L41.2412 15.3223ZM55.8906 15.8418C55.7676 16.8945 55.3779 17.708 54.7217 18.2822C54.07 18.8519 53.2018 19.1367 52.1172 19.1367C50.9414 19.1367 49.998 18.7152 49.2871 17.8721C48.5807 17.029 48.2275 15.901 48.2275 14.4883V13.5312C48.2275 12.6061 48.3916 11.7926 48.7197 11.0908C49.0524 10.389 49.5218 9.85124 50.1279 9.47754C50.734 9.09928 51.4359 8.91016 52.2334 8.91016C53.2907 8.91016 54.1383 9.20638 54.7764 9.79883C55.4144 10.3867 55.7858 11.2025 55.8906 12.2461H54.5713C54.4574 11.4531 54.209 10.8789 53.8262 10.5234C53.4479 10.168 52.917 9.99023 52.2334 9.99023C51.3949 9.99023 50.7363 10.3001 50.2578 10.9199C49.7839 11.5397 49.5469 12.4215 49.5469 13.5654V14.5293C49.5469 15.6094 49.7725 16.4684 50.2236 17.1064C50.6748 17.7445 51.306 18.0635 52.1172 18.0635C52.8464 18.0635 53.4046 17.8994 53.792 17.5713C54.1839 17.2386 54.4437 16.6621 54.5713 15.8418H55.8906ZM60.2178 14.3721L59.001 15.6367V19H57.6885V9.04688H59.001V13.9688L63.4238 9.04688H65.0098L61.0928 13.4424L65.3174 19H63.7451L60.2178 14.3721Z" fill="black"/>
<rect x="72" y="13" width="17" height="2" fill="#0E153A"/>
<rect x="71" y="13.364" width="9" height="1.59604" transform="rotate(-45 71 13.364)" fill="#0E153A"/>
<rect x="71.2307" y="13.1106" width="10.2578" height="1.58413" transform="rotate(45 71.2307 13.1106)" fill="#0E153A"/>
</svg>
