<svg width="59" height="73" viewBox="0 0 59 73" fill="none" xmlns="http://www.w3.org/2000/svg">
<path d="M29.5 8.66875C33.7775 8.66875 37.2438 12.9575 37.2438 18.25C37.2438 23.5425 33.7775 27.8313 29.5 27.8313C25.2225 27.8313 21.7562 23.5425 21.7562 18.25C21.7562 12.9575 25.2225 8.66875 29.5 8.66875ZM29.5 49.7312C40.4519 49.7312 51.9938 56.3925 51.9938 59.3125V64.3313H7.00625V59.3125C7.00625 56.3925 18.5481 49.7312 29.5 49.7312ZM29.5 0C21.3506 0 14.75 8.16687 14.75 18.25C14.75 28.3331 21.3506 36.5 29.5 36.5C37.6494 36.5 44.25 28.3331 44.25 18.25C44.25 8.16687 37.6494 0 29.5 0ZM29.5 41.0625C19.6544 41.0625 0 47.1763 0 59.3125V73H59V59.3125C59 47.1763 39.3456 41.0625 29.5 41.0625Z" fill="#E2F3F5"/>
</svg>
