    <svg width="71" height="76" viewBox="0 0 71 76" fill="none" xmlns="http://www.w3.org/2000/svg">
<path d="M50.7433 47.7987H47.5363L46.3997 46.6255C50.3779 41.6718 52.773 35.2407 52.773 28.2447C52.773 12.6449 40.96 0 26.3865 0C11.813 0 0 12.6449 0 28.2447C0 43.8445 11.813 56.4894 26.3865 56.4894C32.9222 56.4894 38.9302 53.9257 43.558 49.6672L44.6541 50.8839V54.3167L64.9514 76L71 69.5254L50.7433 47.7987ZM26.3865 47.7987C16.2784 47.7987 8.11893 39.0646 8.11893 28.2447C8.11893 17.4248 16.2784 8.69068 26.3865 8.69068C36.4946 8.69068 44.6541 17.4248 44.6541 28.2447C44.6541 39.0646 36.4946 47.7987 26.3865 47.7987Z" fill="#E2F3F5"/>
</svg>
