<svg width="31" height="30" viewBox="0 0 31 30" fill="none" xmlns="http://www.w3.org/2000/svg">
<path d="M30 15C30 23.0081 23.5081 29.5 15.5 29.5C7.49187 29.5 1 23.0081 1 15C1 6.99187 7.49187 0.5 15.5 0.5C23.5081 0.5 30 6.99187 30 15Z" fill="#22D1EE" stroke="#0E153A"/>
<path d="M23 9.58065C23 11.0059 21.7893 12.1613 20.2958 12.1613C18.8023 12.1613 17.5916 11.0059 17.5916 9.58065C17.5916 8.1554 18.8023 7 20.2958 7C21.7893 7 23 8.1554 23 9.58065Z" fill="#0E153A"/>
<path d="M12.4084 14.742C12.4084 16.1672 11.1977 17.3226 9.70418 17.3226C8.2107 17.3226 7 16.1672 7 14.742C7 13.3167 8.2107 12.1613 9.70418 12.1613C11.1977 12.1613 12.4084 13.3167 12.4084 14.742Z" fill="#0E153A"/>
<path d="M23 20.4193C23 21.8446 21.7893 23 20.2958 23C18.8023 23 17.5916 21.8446 17.5916 20.4193C17.5916 18.9941 18.8023 17.8387 20.2958 17.8387C21.7893 17.8387 23 18.9941 23 20.4193Z" fill="#0E153A"/>
<path d="M9.99995 15.0001L18.9999 20.0002L14 17.2223L9.99995 15.0001Z" stroke="#0E153A"/>
<path d="M10.0001 15L19.0002 10.0001L14 12.7777L10.0001 15Z" stroke="#0E153A"/>
</svg>
