<svg width="301" height="359" viewBox="0 0 301 359" fill="none" xmlns="http://www.w3.org/2000/svg">
<rect x="67.5801" y="68.653" width="33" height="208" transform="rotate(-30 67.5801 68.653)" fill="#86D3FF"/>
<rect x="127.805" y="250.966" width="111" height="32" transform="rotate(-30 127.805 250.966)" fill="#0E153A"/>
<rect x="182.776" y="256.178" width="21" height="77" transform="rotate(-30 182.776 256.178)" fill="#0E153A"/>
<path d="M71.3025 41.1003L97.5525 51.9257L67.5525 69.2462L71.3025 41.1003Z" fill="#86D3FF"/>
<rect x="96.1589" y="52.153" width="2" height="188" transform="rotate(-30 96.1589 52.153)" fill="#0E153A"/>
<rect x="66.7141" y="69.153" width="2" height="188" transform="rotate(-30 66.7141 69.153)" fill="#0E153A"/>
<path d="M70.4446 42.4091L71.3496 40.2134L97.8909 51.1529L96.986 53.3486L70.4446 42.4091Z" fill="#0E153A"/>
<path d="M70.6645 40.601L73.0185 40.915L69.1824 69.6651L66.8284 69.351L70.6645 40.601Z" fill="#0E153A"/>
<rect x="71.4365" y="43.3324" width="2" height="208" transform="rotate(-30 71.4365 43.3324)" fill="#0E153A"/>
<path d="M223.934 195.466L239.902 174.122L261.152 210.929L239.934 223.179L223.934 195.466Z" fill="#86D3FF"/>
<path d="M101.337 254.122L127.805 250.966L143.805 278.679L122.587 290.929L101.337 254.122Z" fill="#86D3FF"/>
<path d="M102.387 252.939L100.654 253.939L122.154 291.179L123.887 290.179L102.387 252.939Z" fill="#0E153A"/>
<path d="M240.085 173.439L238.352 174.439L259.852 211.679L261.585 210.679L240.085 173.439Z" fill="#0E153A"/>
<rect x="122.887" y="288.446" width="23" height="2" transform="rotate(-30 122.887 288.446)" fill="#0E153A"/>
<rect x="238.934" y="221.446" width="23" height="2" transform="rotate(-30 238.934 221.446)" fill="#0E153A"/>
<path d="M101.404 255.238L100.154 253.073L131.974 249.393L132.217 251.378L101.404 255.238Z" fill="#0E153A"/>
<path d="M239.585 172.573L240.835 174.738L222.794 197.929L221.197 196.725L239.585 172.573Z" fill="#0E153A"/>
<path d="M219.213 319.289L232.462 300.237L233.462 301.969L220.276 321.13L219.213 319.289Z" fill="#86D3FF"/>
<path d="M216.463 314.526L229.712 295.474L230.712 297.206L217.526 316.366L216.463 314.526Z" fill="#86D3FF"/>
<path d="M213.596 309.559L226.845 290.507L227.845 292.239L214.658 311.4L213.596 309.559Z" fill="#86D3FF"/>
<path d="M210.776 304.675L224.025 285.623L225.025 287.355L211.838 306.515L210.776 304.675Z" fill="#86D3FF"/>
<path d="M207.596 299.167L220.845 280.115L221.845 281.847L208.658 301.007L207.596 299.167Z" fill="#86D3FF"/>
<path d="M204.776 294.283L218.025 275.231L219.025 276.963L205.838 296.123L204.776 294.283Z" fill="#86D3FF"/>
<path d="M202.026 289.52L215.275 270.468L216.275 272.2L203.088 291.36L202.026 289.52Z" fill="#86D3FF"/>
<path d="M204.776 294.283L218.025 275.231L219.025 276.963L205.838 296.123L204.776 294.283Z" fill="#86D3FF"/>
<path d="M198.776 283.891L212.025 264.839L213.025 266.571L199.838 285.731L198.776 283.891Z" fill="#86D3FF"/>
<path d="M195.276 277.829L208.525 258.777L209.525 260.509L196.338 279.669L195.276 277.829Z" fill="#86D3FF"/>
<path d="M192.026 272.2L205.275 253.148L206.275 254.88L193.089 274.04L192.026 272.2Z" fill="#86D3FF"/>
<path d="M189.026 267.003L202.275 247.951L203.275 249.683L190.088 268.844L189.026 267.003Z" fill="#86D3FF"/>
<path d="M185.214 260.4L200.963 245.679L201.463 246.545L186.276 262.241L185.214 260.4Z" fill="#86D3FF"/>
</svg>
